<mxfile host="app.diagrams.net" modified="2021-04-22T14:44:16.469Z" agent="5.0 (Windows NT 10.0; Win64; x64) AppleWebKit/537.36 (KHTML, like Gecko) Chrome/89.0.4389.114 Safari/537.36 OPR/75.0.3969.171" etag="8AE8vQA6SoCta9MYq8j-" version="14.6.3" type="github">
  <diagram name="Page-1" id="c4acf3e9-155e-7222-9cf6-157b1a14988f">
    <mxGraphModel dx="1382" dy="764" grid="1" gridSize="10" guides="1" tooltips="1" connect="1" arrows="1" fold="1" page="1" pageScale="1" pageWidth="850" pageHeight="1100" background="#ffffff" math="0" shadow="0">
      <root>
        <mxCell id="0" />
        <mxCell id="1" parent="0" />
        <mxCell id="54YQfDskZHcNxatdX99T-5" value="Sensor" style="swimlane;fontStyle=1;align=center;verticalAlign=top;childLayout=stackLayout;horizontal=1;startSize=26;horizontalStack=0;resizeParent=1;resizeParentMax=0;resizeLast=0;collapsible=1;marginBottom=0;" parent="1" vertex="1">
          <mxGeometry x="550" y="390" width="180" height="150" as="geometry" />
        </mxCell>
        <mxCell id="54YQfDskZHcNxatdX99T-6" value="- Name: char [255+1]&#xa;- Messwerte; CMesswerte&#xa;" style="text;strokeColor=none;fillColor=none;align=left;verticalAlign=top;spacingLeft=4;spacingRight=4;overflow=hidden;rotatable=0;points=[[0,0.5],[1,0.5]];portConstraint=eastwest;" parent="54YQfDskZHcNxatdX99T-5" vertex="1">
          <mxGeometry y="26" width="180" height="34" as="geometry" />
        </mxCell>
        <mxCell id="54YQfDskZHcNxatdX99T-7" value="" style="line;strokeWidth=1;fillColor=none;align=left;verticalAlign=middle;spacingTop=-1;spacingLeft=3;spacingRight=3;rotatable=0;labelPosition=right;points=[];portConstraint=eastwest;" parent="54YQfDskZHcNxatdX99T-5" vertex="1">
          <mxGeometry y="60" width="180" height="30" as="geometry" />
        </mxCell>
        <mxCell id="54YQfDskZHcNxatdX99T-8" value="+CSensor(char* name)&#xa;+getMesswert(): float;&#xa;&#xa;" style="text;strokeColor=none;fillColor=none;align=left;verticalAlign=top;spacingLeft=4;spacingRight=4;overflow=hidden;rotatable=0;points=[[0,0.5],[1,0.5]];portConstraint=eastwest;" parent="54YQfDskZHcNxatdX99T-5" vertex="1">
          <mxGeometry y="90" width="180" height="60" as="geometry" />
        </mxCell>
        <mxCell id="54YQfDskZHcNxatdX99T-18" value="CMesswerte" style="swimlane;fontStyle=1;align=center;verticalAlign=top;childLayout=stackLayout;horizontal=1;startSize=26;horizontalStack=0;resizeParent=1;resizeParentMax=0;resizeLast=0;collapsible=1;marginBottom=0;" parent="1" vertex="1">
          <mxGeometry x="210" y="390" width="180" height="190" as="geometry" />
        </mxCell>
        <mxCell id="54YQfDskZHcNxatdX99T-19" value="+ field: type" style="text;strokeColor=none;fillColor=none;align=left;verticalAlign=top;spacingLeft=4;spacingRight=4;overflow=hidden;rotatable=0;points=[[0,0.5],[1,0.5]];portConstraint=eastwest;" parent="54YQfDskZHcNxatdX99T-18" vertex="1">
          <mxGeometry y="26" width="180" height="26" as="geometry" />
        </mxCell>
        <mxCell id="54YQfDskZHcNxatdX99T-20" value="" style="line;strokeWidth=1;fillColor=none;align=left;verticalAlign=middle;spacingTop=-1;spacingLeft=3;spacingRight=3;rotatable=0;labelPosition=right;points=[];portConstraint=eastwest;" parent="54YQfDskZHcNxatdX99T-18" vertex="1">
          <mxGeometry y="52" width="180" height="8" as="geometry" />
        </mxCell>
        <mxCell id="54YQfDskZHcNxatdX99T-21" value="+ CMesswerte();&#xa;~CMesswerte();&#xa;+GetDaten(int): vector&lt;float&gt;;&#xa;+GetDaten(int): float;&#xa;+SetDaten(vector): void;&#xa;+Mittelwert(): float;&#xa;+Minimum(): float;&#xa;" style="text;strokeColor=none;fillColor=none;align=left;verticalAlign=top;spacingLeft=4;spacingRight=4;overflow=hidden;rotatable=0;points=[[0,0.5],[1,0.5]];portConstraint=eastwest;" parent="54YQfDskZHcNxatdX99T-18" vertex="1">
          <mxGeometry y="60" width="180" height="130" as="geometry" />
        </mxCell>
        <mxCell id="UG87zBq9uJGlpKmRPxMx-1" value="1" style="endArrow=open;html=1;endSize=12;startArrow=diamondThin;startSize=14;startFill=1;edgeStyle=orthogonalEdgeStyle;align=left;verticalAlign=bottom;" edge="1" parent="1">
          <mxGeometry x="1" y="20" relative="1" as="geometry">
            <mxPoint x="390" y="464.5" as="sourcePoint" />
            <mxPoint x="550" y="464.5" as="targetPoint" />
            <Array as="points">
              <mxPoint x="460" y="465" />
              <mxPoint x="460" y="465" />
            </Array>
            <mxPoint as="offset" />
          </mxGeometry>
        </mxCell>
      </root>
    </mxGraphModel>
  </diagram>
</mxfile>
